<mxfile host="65bd71144e">
    <diagram id="oIsWj-4VGwIDTzhayDQJ" name="PÃ¡gina-1">
        <mxGraphModel dx="900" dy="475" grid="1" gridSize="10" guides="1" tooltips="1" connect="1" arrows="1" fold="1" page="1" pageScale="1" pageWidth="827" pageHeight="1169" background="#FFFFCC" math="0" shadow="0">
            <root>
                <mxCell id="0"/>
                <mxCell id="1" parent="0"/>
                <mxCell id="5" value="&lt;pre&gt;&lt;font face=&quot;Times New Roman&quot;&gt;&lt;span style=&quot;font-size: 14px;&quot;&gt;&lt;b&gt;INICIO&lt;/b&gt;&lt;/span&gt;&lt;/font&gt;&lt;/pre&gt;" style="rounded=1;whiteSpace=wrap;html=1;" vertex="1" parent="1">
                    <mxGeometry x="357" y="10" width="86" height="30" as="geometry"/>
                </mxCell>
                <mxCell id="7" value="" style="endArrow=classic;html=1;fontFamily=Comic Sans MS;fontSize=14;strokeColor=#0F0F0F;" edge="1" parent="1">
                    <mxGeometry width="50" height="50" relative="1" as="geometry">
                        <mxPoint x="397.5" y="44" as="sourcePoint"/>
                        <mxPoint x="398" y="74" as="targetPoint"/>
                    </mxGeometry>
                </mxCell>
                <mxCell id="16" value="" style="edgeStyle=none;html=1;strokeColor=#0F0F0F;fontFamily=Comic Sans MS;fontSize=14;" edge="1" parent="1">
                    <mxGeometry relative="1" as="geometry">
                        <mxPoint x="335" y="99" as="sourcePoint"/>
                        <mxPoint x="305" y="99" as="targetPoint"/>
                    </mxGeometry>
                </mxCell>
                <mxCell id="29" value="" style="edgeStyle=none;html=1;strokeColor=#0F0F0F;fontFamily=Comic Sans MS;fontSize=12;" edge="1" parent="1" source="8" target="11">
                    <mxGeometry relative="1" as="geometry"/>
                </mxCell>
                <mxCell id="8" value="&lt;i&gt;&lt;font style=&quot;font-size: 12px;&quot;&gt;Existe una ruta&lt;/font&gt;&lt;/i&gt;" style="shape=process;whiteSpace=wrap;html=1;backgroundOutline=1;fontFamily=Comic Sans MS;fontSize=14;" vertex="1" parent="1">
                    <mxGeometry x="340" y="80" width="120" height="40" as="geometry"/>
                </mxCell>
                <mxCell id="9" value="" style="endArrow=classic;html=1;strokeColor=#0F0F0F;fontFamily=Comic Sans MS;fontSize=14;" edge="1" parent="1">
                    <mxGeometry width="50" height="50" relative="1" as="geometry">
                        <mxPoint x="540" y="98.5" as="sourcePoint"/>
                        <mxPoint x="567" y="99" as="targetPoint"/>
                    </mxGeometry>
                </mxCell>
                <mxCell id="11" value="&lt;b&gt;&lt;font style=&quot;font-size: 10px;&quot;&gt;SI&lt;/font&gt;&lt;/b&gt;" style="ellipse;whiteSpace=wrap;html=1;fontFamily=Comic Sans MS;fontSize=14;" vertex="1" parent="1">
                    <mxGeometry x="495" y="84" width="40" height="30" as="geometry"/>
                </mxCell>
                <mxCell id="17" value="&lt;b&gt;&lt;font style=&quot;font-size: 10px;&quot;&gt;NO&lt;/font&gt;&lt;/b&gt;" style="ellipse;whiteSpace=wrap;html=1;fontFamily=Comic Sans MS;fontSize=14;" vertex="1" parent="1">
                    <mxGeometry x="256" y="85" width="40" height="30" as="geometry"/>
                </mxCell>
                <mxCell id="21" value="" style="edgeStyle=none;html=1;strokeColor=#0F0F0F;fontFamily=Comic Sans MS;fontSize=14;" edge="1" parent="1">
                    <mxGeometry relative="1" as="geometry">
                        <mxPoint x="248" y="100.5" as="sourcePoint"/>
                        <mxPoint x="218" y="100.5" as="targetPoint"/>
                    </mxGeometry>
                </mxCell>
                <mxCell id="25" value="" style="endArrow=classic;html=1;strokeColor=#0F0F0F;fontFamily=Comic Sans MS;fontSize=10;" edge="1" parent="1">
                    <mxGeometry width="50" height="50" relative="1" as="geometry">
                        <mxPoint x="130" y="100" as="sourcePoint"/>
                        <mxPoint x="40" y="180" as="targetPoint"/>
                        <Array as="points">
                            <mxPoint x="40" y="100"/>
                        </Array>
                    </mxGeometry>
                </mxCell>
                <mxCell id="33" value="" style="endArrow=classic;html=1;strokeColor=#0F0F0F;fontFamily=Comic Sans MS;fontSize=12;" edge="1" parent="1">
                    <mxGeometry width="50" height="50" relative="1" as="geometry">
                        <mxPoint x="650" y="96.5" as="sourcePoint"/>
                        <mxPoint x="710" y="80" as="targetPoint"/>
                        <Array as="points">
                            <mxPoint x="660" y="90"/>
                            <mxPoint x="670" y="80"/>
                        </Array>
                    </mxGeometry>
                </mxCell>
                <mxCell id="35" value="&lt;b&gt;&lt;font style=&quot;font-size: 10px;&quot;&gt;NO&lt;/font&gt;&lt;/b&gt;" style="rounded=1;whiteSpace=wrap;html=1;fontFamily=Comic Sans MS;fontSize=12;align=center;" vertex="1" parent="1">
                    <mxGeometry x="710" y="68" width="30" height="23" as="geometry"/>
                </mxCell>
                <mxCell id="37" value="" style="endArrow=classic;html=1;strokeColor=#0F0F0F;fontFamily=Comic Sans MS;fontSize=10;" edge="1" parent="1">
                    <mxGeometry width="50" height="50" relative="1" as="geometry">
                        <mxPoint x="747" y="80" as="sourcePoint"/>
                        <mxPoint x="790" y="80" as="targetPoint"/>
                    </mxGeometry>
                </mxCell>
                <mxCell id="40" value="" style="endArrow=classic;html=1;strokeColor=#0F0F0F;fontFamily=Comic Sans MS;fontSize=10;" edge="1" parent="1">
                    <mxGeometry width="50" height="50" relative="1" as="geometry">
                        <mxPoint x="644" y="104" as="sourcePoint"/>
                        <mxPoint x="720" y="130" as="targetPoint"/>
                        <Array as="points">
                            <mxPoint x="670" y="100"/>
                            <mxPoint x="700" y="120"/>
                        </Array>
                    </mxGeometry>
                </mxCell>
                <mxCell id="44" value="" style="endArrow=classic;html=1;strokeColor=#0F0F0F;fontFamily=Comic Sans MS;fontSize=10;" edge="1" parent="1">
                    <mxGeometry width="50" height="50" relative="1" as="geometry">
                        <mxPoint x="755" y="130" as="sourcePoint"/>
                        <mxPoint x="785" y="160" as="targetPoint"/>
                        <Array as="points">
                            <mxPoint x="785" y="130"/>
                        </Array>
                    </mxGeometry>
                </mxCell>
                <mxCell id="45" value="El archivo es tipo md" style="rounded=1;whiteSpace=wrap;html=1;fontFamily=Comic Sans MS;fontSize=10;align=center;" vertex="1" parent="1">
                    <mxGeometry x="744" y="163" width="80" height="38" as="geometry"/>
                </mxCell>
                <mxCell id="47" value="El archivo es una ruta absoluta" style="rounded=1;whiteSpace=wrap;html=1;fontFamily=Comic Sans MS;fontSize=10;align=center;" vertex="1" parent="1">
                    <mxGeometry x="570" y="85" width="80" height="38" as="geometry"/>
                </mxCell>
                <mxCell id="49" value="Mensaje de error" style="rounded=1;whiteSpace=wrap;html=1;fontFamily=Comic Sans MS;fontSize=10;align=center;" vertex="1" parent="1">
                    <mxGeometry x="134" y="82" width="80" height="38" as="geometry"/>
                </mxCell>
                <mxCell id="51" value="&lt;div style=&quot;text-align: justify;&quot;&gt;&lt;b style=&quot;background-color: initial;&quot;&gt;&lt;font style=&quot;font-size: 14px;&quot;&gt;FIN&amp;nbsp;&lt;/font&gt;&lt;/b&gt;&lt;/div&gt;" style="rounded=1;whiteSpace=wrap;html=1;fontFamily=Comic Sans MS;fontSize=10;align=center;" vertex="1" parent="1">
                    <mxGeometry x="10" y="180" width="70" height="30" as="geometry"/>
                </mxCell>
                <mxCell id="52" value="&lt;b&gt;&lt;font style=&quot;font-size: 10px;&quot;&gt;SI&lt;/font&gt;&lt;/b&gt;" style="rounded=1;whiteSpace=wrap;html=1;fontFamily=Comic Sans MS;fontSize=12;align=center;" vertex="1" parent="1">
                    <mxGeometry x="722" y="119" width="30" height="23" as="geometry"/>
                </mxCell>
                <mxCell id="53" value="" style="endArrow=classic;html=1;strokeColor=#0F0F0F;fontFamily=Comic Sans MS;fontSize=14;" edge="1" parent="1">
                    <mxGeometry width="50" height="50" relative="1" as="geometry">
                        <mxPoint x="783.5" y="203" as="sourcePoint"/>
                        <mxPoint x="784" y="230" as="targetPoint"/>
                    </mxGeometry>
                </mxCell>
                <mxCell id="67" value="" style="edgeStyle=none;html=1;strokeColor=#0F0F0F;fontFamily=Comic Sans MS;fontSize=14;" edge="1" parent="1" source="54" target="58">
                    <mxGeometry relative="1" as="geometry"/>
                </mxCell>
                <mxCell id="54" value="&lt;b&gt;&lt;font style=&quot;font-size: 10px;&quot;&gt;SI&lt;/font&gt;&lt;/b&gt;" style="rounded=1;whiteSpace=wrap;html=1;fontFamily=Comic Sans MS;fontSize=12;align=center;" vertex="1" parent="1">
                    <mxGeometry x="770" y="230" width="30" height="23" as="geometry"/>
                </mxCell>
                <mxCell id="55" value="" style="endArrow=classic;html=1;strokeColor=#0F0F0F;fontFamily=Comic Sans MS;fontSize=14;" edge="1" parent="1">
                    <mxGeometry width="50" height="50" relative="1" as="geometry">
                        <mxPoint x="785.5" y="255" as="sourcePoint"/>
                        <mxPoint x="786" y="282" as="targetPoint"/>
                    </mxGeometry>
                </mxCell>
                <mxCell id="56" value="Convertirlo absoluta" style="rounded=1;whiteSpace=wrap;html=1;fontFamily=Comic Sans MS;fontSize=10;align=center;" vertex="1" parent="1">
                    <mxGeometry x="793" y="60.5" width="80" height="38" as="geometry"/>
                </mxCell>
                <mxCell id="58" value="Leer el docuemnto" style="rounded=1;whiteSpace=wrap;html=1;fontFamily=Comic Sans MS;fontSize=10;align=center;" vertex="1" parent="1">
                    <mxGeometry x="747" y="281" width="80" height="38" as="geometry"/>
                </mxCell>
                <mxCell id="61" value="" style="endArrow=classic;html=1;strokeColor=#0F0F0F;fontFamily=Comic Sans MS;fontSize=14;" edge="1" parent="1">
                    <mxGeometry width="50" height="50" relative="1" as="geometry">
                        <mxPoint x="774.5" y="203" as="sourcePoint"/>
                        <mxPoint x="720" y="220" as="targetPoint"/>
                        <Array as="points">
                            <mxPoint x="775" y="220"/>
                        </Array>
                    </mxGeometry>
                </mxCell>
                <mxCell id="62" value="&lt;span style=&quot;font-size: 10px;&quot;&gt;&lt;b&gt;NO&lt;/b&gt;&lt;/span&gt;" style="rounded=1;whiteSpace=wrap;html=1;fontFamily=Comic Sans MS;fontSize=12;align=center;" vertex="1" parent="1">
                    <mxGeometry x="690" y="210" width="30" height="23" as="geometry"/>
                </mxCell>
                <mxCell id="63" value="" style="endArrow=classic;html=1;strokeColor=#0F0F0F;fontFamily=Comic Sans MS;fontSize=14;" edge="1" parent="1">
                    <mxGeometry width="50" height="50" relative="1" as="geometry">
                        <mxPoint x="688" y="220" as="sourcePoint"/>
                        <mxPoint x="450" y="220" as="targetPoint"/>
                    </mxGeometry>
                </mxCell>
                <mxCell id="65" value="Mensaje de error" style="rounded=1;whiteSpace=wrap;html=1;fontFamily=Comic Sans MS;fontSize=10;align=center;" vertex="1" parent="1">
                    <mxGeometry x="363" y="202.5" width="80" height="38" as="geometry"/>
                </mxCell>
                <mxCell id="66" value="" style="endArrow=classic;html=1;strokeColor=#0F0F0F;fontFamily=Comic Sans MS;fontSize=14;" edge="1" parent="1">
                    <mxGeometry width="50" height="50" relative="1" as="geometry">
                        <mxPoint x="360" y="220" as="sourcePoint"/>
                        <mxPoint x="90" y="192" as="targetPoint"/>
                        <Array as="points">
                            <mxPoint x="290" y="220"/>
                            <mxPoint x="240" y="192"/>
                        </Array>
                    </mxGeometry>
                </mxCell>
                <mxCell id="68" value="" style="endArrow=classic;html=1;strokeColor=#0F0F0F;fontFamily=Comic Sans MS;fontSize=14;" edge="1" parent="1">
                    <mxGeometry width="50" height="50" relative="1" as="geometry">
                        <mxPoint x="786.5" y="321" as="sourcePoint"/>
                        <mxPoint x="787" y="348" as="targetPoint"/>
                    </mxGeometry>
                </mxCell>
                <mxCell id="69" value="El documento tiene link" style="rounded=1;whiteSpace=wrap;html=1;fontFamily=Comic Sans MS;fontSize=10;align=center;" vertex="1" parent="1">
                    <mxGeometry x="747" y="350" width="80" height="38" as="geometry"/>
                </mxCell>
                <mxCell id="72" value="" style="endArrow=classic;html=1;strokeColor=#0F0F0F;fontFamily=Comic Sans MS;fontSize=14;" edge="1" parent="1">
                    <mxGeometry width="50" height="50" relative="1" as="geometry">
                        <mxPoint x="743" y="368.5" as="sourcePoint"/>
                        <mxPoint x="699" y="369" as="targetPoint"/>
                        <Array as="points">
                            <mxPoint x="723" y="368.5"/>
                        </Array>
                    </mxGeometry>
                </mxCell>
                <mxCell id="73" value="&lt;b&gt;&lt;font style=&quot;font-size: 10px;&quot;&gt;SI&lt;/font&gt;&lt;/b&gt;" style="rounded=1;whiteSpace=wrap;html=1;fontFamily=Comic Sans MS;fontSize=12;align=center;" vertex="1" parent="1">
                    <mxGeometry x="666" y="357.5" width="30" height="23" as="geometry"/>
                </mxCell>
                <mxCell id="74" value="Creo la funciÃ³n para extraerlos" style="rounded=1;whiteSpace=wrap;html=1;fontFamily=Comic Sans MS;fontSize=10;align=center;" vertex="1" parent="1">
                    <mxGeometry x="550" y="350" width="80" height="38" as="geometry"/>
                </mxCell>
                <mxCell id="75" value="" style="edgeStyle=none;html=1;strokeColor=#0F0F0F;fontFamily=Comic Sans MS;fontSize=14;" edge="1" parent="1">
                    <mxGeometry relative="1" as="geometry">
                        <mxPoint x="664" y="368.5" as="sourcePoint"/>
                        <mxPoint x="634" y="368.5" as="targetPoint"/>
                    </mxGeometry>
                </mxCell>
                <mxCell id="78" value="" style="endArrow=classic;html=1;strokeColor=#0F0F0F;fontFamily=Comic Sans MS;fontSize=14;" edge="1" parent="1">
                    <mxGeometry width="50" height="50" relative="1" as="geometry">
                        <mxPoint x="786.5" y="390" as="sourcePoint"/>
                        <mxPoint x="786.5" y="420" as="targetPoint"/>
                    </mxGeometry>
                </mxCell>
                <mxCell id="80" value="&lt;span style=&quot;font-size: 10px;&quot;&gt;&lt;b&gt;NO&lt;/b&gt;&lt;/span&gt;" style="rounded=1;whiteSpace=wrap;html=1;fontFamily=Comic Sans MS;fontSize=12;align=center;" vertex="1" parent="1">
                    <mxGeometry x="772" y="421" width="30" height="23" as="geometry"/>
                </mxCell>
                <mxCell id="81" value="" style="endArrow=none;html=1;strokeColor=#0F0F0F;fontFamily=Comic Sans MS;fontSize=14;" edge="1" parent="1">
                    <mxGeometry width="50" height="50" relative="1" as="geometry">
                        <mxPoint x="490" y="470" as="sourcePoint"/>
                        <mxPoint x="787" y="446" as="targetPoint"/>
                        <Array as="points">
                            <mxPoint x="787" y="472"/>
                        </Array>
                    </mxGeometry>
                </mxCell>
                <mxCell id="82" value="Mensaje de error" style="rounded=1;whiteSpace=wrap;html=1;fontFamily=Comic Sans MS;fontSize=10;align=center;" vertex="1" parent="1">
                    <mxGeometry x="173" y="380" width="70" height="30" as="geometry"/>
                </mxCell>
                <mxCell id="83" value="" style="endArrow=classic;html=1;strokeColor=#0F0F0F;fontFamily=Comic Sans MS;fontSize=14;" edge="1" parent="1">
                    <mxGeometry width="50" height="50" relative="1" as="geometry">
                        <mxPoint x="386" y="468" as="sourcePoint"/>
                        <mxPoint x="40" y="220" as="targetPoint"/>
                        <Array as="points">
                            <mxPoint x="40" y="468"/>
                        </Array>
                    </mxGeometry>
                </mxCell>
                <mxCell id="84" value="" style="endArrow=classic;html=1;strokeColor=#0F0F0F;fontFamily=Comic Sans MS;fontSize=14;" edge="1" parent="1">
                    <mxGeometry width="50" height="50" relative="1" as="geometry">
                        <mxPoint x="830" y="100" as="sourcePoint"/>
                        <mxPoint x="800" y="160" as="targetPoint"/>
                        <Array as="points">
                            <mxPoint x="830" y="130"/>
                            <mxPoint x="800" y="130"/>
                        </Array>
                    </mxGeometry>
                </mxCell>
                <mxCell id="86" value="" style="endArrow=classic;html=1;strokeColor=#0F0F0F;fontFamily=Comic Sans MS;fontSize=14;" edge="1" parent="1">
                    <mxGeometry width="50" height="50" relative="1" as="geometry">
                        <mxPoint x="544" y="368.5" as="sourcePoint"/>
                        <mxPoint x="500" y="369" as="targetPoint"/>
                        <Array as="points">
                            <mxPoint x="524" y="368.5"/>
                        </Array>
                    </mxGeometry>
                </mxCell>
                <mxCell id="87" value="Validar informaciÃ³n" style="rounded=1;whiteSpace=wrap;html=1;fontFamily=Comic Sans MS;fontSize=10;align=center;" vertex="1" parent="1">
                    <mxGeometry x="430" y="355" width="66" height="30" as="geometry"/>
                </mxCell>
                <mxCell id="88" value="" style="endArrow=classic;html=1;strokeColor=#0F0F0F;fontFamily=Comic Sans MS;fontSize=12;exitX=0;exitY=0.25;exitDx=0;exitDy=0;" edge="1" parent="1" source="87">
                    <mxGeometry width="50" height="50" relative="1" as="geometry">
                        <mxPoint x="425" y="363.5" as="sourcePoint"/>
                        <mxPoint x="375" y="363.5" as="targetPoint"/>
                    </mxGeometry>
                </mxCell>
                <mxCell id="89" value="" style="endArrow=classic;html=1;strokeColor=#0F0F0F;fontFamily=Comic Sans MS;fontSize=12;exitX=0;exitY=0.5;exitDx=0;exitDy=0;exitPerimeter=0;" edge="1" parent="1">
                    <mxGeometry width="50" height="50" relative="1" as="geometry">
                        <mxPoint x="430" y="365" as="sourcePoint"/>
                        <mxPoint x="330" y="395" as="targetPoint"/>
                        <Array as="points">
                            <mxPoint x="400" y="395"/>
                        </Array>
                    </mxGeometry>
                </mxCell>
                <mxCell id="90" value="&lt;b&gt;&lt;font style=&quot;font-size: 10px;&quot;&gt;SI&lt;/font&gt;&lt;/b&gt;" style="rounded=1;whiteSpace=wrap;html=1;fontFamily=Comic Sans MS;fontSize=12;align=center;" vertex="1" parent="1">
                    <mxGeometry x="340" y="350" width="30" height="23" as="geometry"/>
                </mxCell>
                <mxCell id="92" value="&lt;span style=&quot;font-size: 10px;&quot;&gt;&lt;b&gt;NO&lt;/b&gt;&lt;/span&gt;" style="rounded=1;whiteSpace=wrap;html=1;fontFamily=Comic Sans MS;fontSize=12;align=center;" vertex="1" parent="1">
                    <mxGeometry x="298" y="384" width="30" height="23" as="geometry"/>
                </mxCell>
                <mxCell id="94" value="" style="endArrow=none;html=1;strokeColor=#0F0F0F;fontFamily=Comic Sans MS;fontSize=12;" edge="1" parent="1">
                    <mxGeometry width="50" height="50" relative="1" as="geometry">
                        <mxPoint x="295" y="394" as="sourcePoint"/>
                        <mxPoint x="245" y="394" as="targetPoint"/>
                    </mxGeometry>
                </mxCell>
                <mxCell id="95" value="Mensaje de error" style="rounded=1;whiteSpace=wrap;html=1;fontFamily=Comic Sans MS;fontSize=10;align=center;" vertex="1" parent="1">
                    <mxGeometry x="400" y="450" width="80" height="40" as="geometry"/>
                </mxCell>
                <mxCell id="96" value="" style="endArrow=classic;html=1;strokeColor=#0F0F0F;fontFamily=Comic Sans MS;fontSize=12;" edge="1" parent="1">
                    <mxGeometry width="50" height="50" relative="1" as="geometry">
                        <mxPoint x="170" y="395" as="sourcePoint"/>
                        <mxPoint x="60" y="220" as="targetPoint"/>
                        <Array as="points">
                            <mxPoint x="60" y="395"/>
                        </Array>
                    </mxGeometry>
                </mxCell>
                <mxCell id="97" value="" style="endArrow=classic;html=1;strokeColor=#0F0F0F;fontFamily=Comic Sans MS;fontSize=12;" edge="1" parent="1">
                    <mxGeometry width="50" height="50" relative="1" as="geometry">
                        <mxPoint x="330" y="361" as="sourcePoint"/>
                        <mxPoint x="280" y="330" as="targetPoint"/>
                        <Array as="points">
                            <mxPoint x="280" y="361"/>
                        </Array>
                    </mxGeometry>
                </mxCell>
                <mxCell id="98" value="Mostrar informaciÃ³n" style="rounded=1;whiteSpace=wrap;html=1;fontFamily=Comic Sans MS;fontSize=10;align=center;" vertex="1" parent="1">
                    <mxGeometry x="246" y="299" width="66" height="30" as="geometry"/>
                </mxCell>
                <mxCell id="99" value="" style="endArrow=classic;html=1;strokeColor=#0F0F0F;fontFamily=Comic Sans MS;fontSize=12;" edge="1" parent="1">
                    <mxGeometry width="50" height="50" relative="1" as="geometry">
                        <mxPoint x="280" y="290" as="sourcePoint"/>
                        <mxPoint x="80" y="220" as="targetPoint"/>
                        <Array as="points">
                            <mxPoint x="280" y="240"/>
                            <mxPoint x="80" y="240"/>
                        </Array>
                    </mxGeometry>
                </mxCell>
            </root>
        </mxGraphModel>
    </diagram>
</mxfile>